<?xml version="1.0" standalone="no"?>
<!DOCTYPE svg PUBLIC "-//W3C//DTD SVG 20010904//EN"
 "http://www.w3.org/TR/2001/REC-SVG-20010904/DTD/svg10.dtd">
<svg version="1.0" xmlns="http://www.w3.org/2000/svg"
 width="500.000000pt" height="500.000000pt" viewBox="0 0 500.000000 500.000000"
 preserveAspectRatio="xMidYMid meet">
<metadata>
Created by potrace 1.11, written by Peter Selinger 2001-2013
</metadata>
<g transform="translate(0.000000,500.000000) scale(0.100000,-0.100000)"
fill="#000000" stroke="none">
<path d="M2355 4978 c-168 -18 -315 -65 -460 -150 -38 -22 -83 -48 -100 -58
-16 -9 -133 -77 -260 -150 -126 -74 -284 -165 -350 -202 -66 -38 -127 -73
-135 -78 -52 -32 -153 -90 -155 -90 -9 0 -188 -109 -233 -142 -66 -49 -179
-163 -218 -220 -16 -24 -32 -45 -35 -48 -31 -26 -139 -241 -172 -345 -54 -166
-54 -170 -52 -1021 1 -706 3 -796 18 -857 75 -296 246 -566 462 -727 44 -32
334 -204 495 -293 30 -17 83 -48 118 -69 34 -21 64 -38 66 -38 2 0 76 -43 165
-95 89 -52 163 -95 165 -95 2 0 33 -17 67 -38 66 -40 126 -74 216 -124 255
-141 685 -163 979 -49 39 15 151 74 250 131 98 56 199 114 224 128 25 14 74
42 109 64 34 21 64 38 66 38 2 0 39 21 82 46 43 26 94 56 113 67 19 10 109 62
200 115 91 52 179 103 195 112 17 9 55 32 85 50 265 160 487 496 544 823 19
112 19 1562 0 1674 -41 234 -173 486 -350 669 -60 61 -144 127 -208 164 -20
11 -52 29 -72 40 -19 11 -104 60 -187 109 -84 48 -258 149 -387 223 -129 75
-251 145 -270 157 -19 11 -42 24 -50 28 -8 4 -64 36 -124 71 -186 110 -276
144 -456 173 -88 13 -247 17 -345 7z"/>
</g>
</svg>
