<?xml version="1.0" encoding="utf-8"?>
<!-- Generator: Adobe Illustrator 19.0.0, SVG Export Plug-In . SVG Version: 6.00 Build 0)  -->
<svg version="1.1" xmlns="http://www.w3.org/2000/svg" xmlns:xlink="http://www.w3.org/1999/xlink" x="0px" y="0px"
	 viewBox="0 0 2009 500" style="enable-background:new 0 0 2009 500;" xml:space="preserve">
<style type="text/css">
	.st0{display:none;}
	.st1{display:inline;fill:none;}
	.st2{display:inline;fill:#6BBF5F;}
	.st3{font-family:'WalkwayRounded';}
	.st4{font-size:100px;}
	.st5{letter-spacing:9.6;}
	.st6{display:inline;fill:#53BB75;}
	.st7{font-family:'Calibri-Bold';}
	.st8{font-size:35px;}
	.st9{letter-spacing:2.4;}
	.st10{fill:#4F3260;}
	.st11{fill:#0E1F28;}
	.st12{fill:#FFFFFF;}
</style>
<g id="text" class="st0">
	<rect id="XMLID_2_" x="25.2" y="216.4" class="st1" width="449.7" height="247.8"/>
	<text id="XMLID_10_" transform="matrix(1.35 0 0 1 44.5334 284.1997)" class="st2 st3 st4 st5">CODIS</text>
	<text id="XMLID_3_" transform="matrix(0.85 0 0 1 111.3221 342.9014)" class="st6 st7 st8 st9">OPTIMAL SOLUTIONS</text>
</g>
<g id="back">
	<g id="XMLID_1_">
		<path id="XMLID_61_" class="st10" d="M18.3,181.3c0-35.8,25.3-79.6,56.3-97.5L193.7,15c31-17.9,81.6-17.9,112.6,0l119.1,68.8
			c31,17.9,56.3,61.8,56.3,97.5v137.5c0,35.8-25.3,79.6-56.3,97.5L306.3,485c-31,17.9-81.6,17.9-112.6,0L74.6,416.3
			c-31-17.9-56.3-61.8-56.3-97.5V181.3z"/>
	</g>
</g>
<g id="text_1_">
	<g id="XMLID_72_">
		<path id="XMLID_83_" class="st11" d="M826.5,176.3c0,3.5-2.2,6.3-6.6,8.3l-7.5,3.5v-0.3l-3.3,1.4c-0.9,0.5-2.2,0.7-3.8,0.7
			c-4.4,0-8.1-1.4-11.3-4.2c-17.5-20.2-49-30.2-94.3-30.2c-39.4,0-70.6,8.6-93.6,25.9c-23,17.3-34.5,40.3-34.5,69
			c0,28.5,10.9,51.3,32.8,68.5c21.9,17.1,51.9,25.7,90.1,25.7c43.8,0,75.9-10.5,96.2-31.6c2.5-2.5,5.9-3.8,10.3-3.8
			c4.1,0,6.9,0.7,8.4,2.1l-0.5-0.3l9.9,4.9l1.9,8.7c0.6,1.6,0.2,3-1.4,4.2c-27.5,27.8-69,41.7-124.3,41.7
			c-48.8,0-87.4-10.6-115.7-31.8c-28.3-21.2-42.5-50.1-42.5-86.7c0-37.5,14.6-67.3,43.9-89.2c29.2-21.9,68.9-32.8,118.9-32.8
			c57.2,0,98.5,13.7,123.9,41l-0.5-0.7C825.4,171.4,826.5,173.5,826.5,176.3z"/>
		<path id="XMLID_80_" class="st11" d="M1207.9,250c0,18.8-3.6,35.3-10.8,49.7c-8.1,15.8-18.9,28.6-32.4,38.6
			c-13.5,10-30.7,17.8-51.6,23.6c-19.4,5.6-41.8,8.3-67.1,8.3c-50.4,0-89.9-10.6-118.5-31.8c-28.6-21.2-42.9-50.7-42.9-88.5
			c0-37.3,14.5-66,43.6-86.2h-0.5c27.5-20.4,66.9-30.6,118.2-30.6c50,0,89.3,10.2,117.8,30.6C1193.2,184.9,1207.9,213.6,1207.9,250z
			 M1172.3,250c0-44.3-24.1-72.8-72.3-85.5c-15.6-3.9-33.6-5.9-54-5.9c-40,0-71.2,7.9-93.4,23.6c-22.2,15.8-33.3,38.4-33.3,67.8
			c0,28.3,10.6,51,31.9,68.1c0.6,0,1.2,0.2,1.9,0.7c23.1,17.1,54.1,25.7,92.9,25.7c39.1,0,69.9-8.5,92.4-25.5
			C1161,302,1172.3,279,1172.3,250z"/>
		<path id="XMLID_77_" class="st11" d="M1538.7,250.3c0,37.5-15.5,66.9-46.5,87.9c-29.1,19.7-68.7,29.5-118.7,29.5h-93.8
			c-3.4,0-6.5-1-9.2-3c-2.7-2-4-4.2-4-6.8V141.9c0-2.5,1.3-4.8,4-6.8c2.7-2,5.7-3,9.2-3h109.8c47.9,0,85.2,10.8,112.1,32.3
			C1526.4,184.4,1538.7,213,1538.7,250.3z M1504,250.3c0-61.6-38.3-92.5-115-92.5h-87.3v184.2h72.3c64.1,0,104.6-17.3,121.5-51.8
			C1501.2,278.7,1504,265.4,1504,250.3z"/>
		<path id="XMLID_75_" class="st11" d="M1623.7,358.1c0,6.5-4.4,9.7-13.1,9.7h-5.2c-11,0-16.4-3.2-16.4-9.7V141.9
			c0-6.5,5.5-9.7,16.4-9.7h5.2c8.8,0,13.1,3.2,13.1,9.7V358.1z"/>
		<path id="XMLID_73_" class="st11" d="M1948.4,305.3c0,23.2-15.2,40.4-45.5,51.8c-23.5,8.8-49.6,13.2-78.4,13.2
			c-38.8,0-69.6-5.3-92.4-16c-30-13.9-45-35.3-45-64.3v-3.5c0-6.5,4.4-9.7,13.1-9.7h8.9c8.8,0,13.1,3.2,13.1,9.7v2.1
			c0,37.3,34.1,56,102.3,56c25,0,45.4-2.9,61-8.7c18.8-7,28.2-17.4,28.2-31.3c0-9.7-3.8-17.4-11.3-22.9c-5.9-4.4-15.8-8.2-29.6-11.5
			c-5.6-1.4-12-2.7-19.2-3.8l-39.9-6.6c-36.6-6-61.8-11.8-75.5-17.4c-27.8-11.1-41.8-27.8-41.8-50.1c0-41.7,39.9-62.6,119.7-62.6
			c83.5,0,125.8,24.2,126.7,72.6c0,6.3-4.4,9.4-13.1,9.4h-8.9c-8.4,0-12.8-2.9-13.1-8.7c-1.9-26.4-19.7-41.7-53.5-45.9
			c-10.6-1.2-23.3-1.7-38-1.7c-56.6,0-84.9,12.3-84.9,36.8c0,12.1,7.2,21.1,21.6,27.1c9.1,3.9,28,7.9,56.8,11.8
			c52.2,7.4,87.3,15.3,105.1,23.6C1937.1,265.5,1948.4,282.3,1948.4,305.3z"/>
	</g>
	<g id="XMLID_4_">
		<g id="XMLID_19_">
			<path id="XMLID_20_" class="st12" d="M130.3,201.3c0,1-0.6,1.8-1.9,2.4l-2.2,1v-0.1l-0.9,0.4c-0.3,0.1-0.6,0.2-1.1,0.2
				c-1.3,0-2.3-0.4-3.2-1.2c-5-5.8-14.1-8.7-27.1-8.7c-11.3,0-20.3,2.5-26.9,7.5c-6.6,5-9.9,11.6-9.9,19.9c0,8.2,3.1,14.8,9.5,19.7
				c6.3,4.9,14.9,7.4,25.9,7.4c12.6,0,21.8-3,27.7-9.1c0.7-0.7,1.7-1.1,3-1.1c1.2,0,2,0.2,2.4,0.6l-0.1-0.1l2.8,1.4l0.5,2.5
				c0.2,0.5,0,0.9-0.4,1.2c-7.9,8-19.8,12-35.8,12c-14,0-25.1-3-33.3-9.2C51,241.8,47,233.5,47,223c0-10.8,4.2-19.3,12.6-25.6
				c8.4-6.3,19.8-9.5,34.2-9.5c16.5,0,28.4,3.9,35.6,11.8l-0.1-0.2C129.9,199.9,130.3,200.5,130.3,201.3z"/>
			<path id="XMLID_22_" class="st12" d="M240,222.5c0,5.4-1,10.2-3.1,14.3c-2.3,4.5-5.4,8.2-9.3,11.1c-3.9,2.9-8.8,5.1-14.8,6.8
				c-5.6,1.6-12,2.4-19.3,2.4c-14.5,0-25.9-3-34.1-9.2c-8.2-6.1-12.4-14.6-12.4-25.4c0-10.7,4.2-19,12.6-24.8h-0.1
				c7.9-5.9,19.3-8.8,34-8.8c14.4,0,25.7,2.9,33.9,8.8C235.8,203.7,240,212,240,222.5z M229.8,222.5c0-12.7-6.9-20.9-20.8-24.6
				c-4.5-1.1-9.7-1.7-15.5-1.7c-11.5,0-20.5,2.3-26.9,6.8c-6.4,4.5-9.6,11-9.6,19.5c0,8.1,3.1,14.7,9.2,19.6c0.2,0,0.4,0.1,0.5,0.2
				c6.7,4.9,15.6,7.4,26.7,7.4c11.3,0,20.1-2.5,26.6-7.3C226.5,237.4,229.8,230.8,229.8,222.5z"/>
			<path id="XMLID_27_" class="st12" d="M335.2,222.6c0,10.8-4.5,19.2-13.4,25.3c-8.4,5.7-19.8,8.5-34.2,8.5h-27
				c-1,0-1.9-0.3-2.6-0.8c-0.8-0.6-1.1-1.2-1.1-2v-62.2c0-0.7,0.4-1.4,1.1-2c0.8-0.6,1.6-0.8,2.6-0.8h31.6c13.8,0,24.5,3.1,32.3,9.3
				C331.6,203.6,335.2,211.8,335.2,222.6z M325.2,222.6c0-17.7-11-26.6-33.1-26.6H267v53h20.8c18.4,0,30.1-5,35-14.9
				C324.4,230.7,325.2,226.9,325.2,222.6z"/>
			<path id="XMLID_30_" class="st12" d="M359.6,253.6c0,1.9-1.3,2.8-3.8,2.8h-1.5c-3.2,0-4.7-0.9-4.7-2.8v-62.2
				c0-1.9,1.6-2.8,4.7-2.8h1.5c2.5,0,3.8,0.9,3.8,2.8V253.6z"/>
			<path id="XMLID_32_" class="st12" d="M453,238.4c0,6.7-4.4,11.6-13.1,14.9c-6.8,2.5-14.3,3.8-22.5,3.8c-11.2,0-20-1.5-26.6-4.6
				c-8.6-4-13-10.2-13-18.5v-1c0-1.9,1.3-2.8,3.8-2.8h2.6c2.5,0,3.8,0.9,3.8,2.8v0.6c0,10.7,9.8,16.1,29.4,16.1
				c7.2,0,13-0.8,17.5-2.5c5.4-2,8.1-5,8.1-9c0-2.8-1.1-5-3.2-6.6c-1.7-1.3-4.5-2.4-8.5-3.3c-1.6-0.4-3.5-0.8-5.5-1.1l-11.5-1.9
				c-10.5-1.7-17.8-3.4-21.7-5c-8-3.2-12-8-12-14.4c0-12,11.5-18,34.4-18c24,0,36.2,7,36.4,20.9c0,1.8-1.3,2.7-3.8,2.7h-2.6
				c-2.4,0-3.7-0.8-3.8-2.5c-0.5-7.6-5.7-12-15.4-13.2c-3.1-0.3-6.7-0.5-10.9-0.5c-16.3,0-24.4,3.5-24.4,10.6c0,3.5,2.1,6.1,6.2,7.8
				c2.6,1.1,8.1,2.3,16.3,3.4c15,2.1,25.1,4.4,30.2,6.8C449.8,226.9,453,231.8,453,238.4z"/>
		</g>
		<g id="XMLID_5_">
			<path id="XMLID_6_" class="st12" d="M108.7,300.4c0,1.8-0.2,3.5-0.6,4.9c-0.4,1.4-1,2.7-1.7,3.7c-0.8,1-1.7,1.8-2.8,2.3
				c-1.1,0.5-2.4,0.8-3.9,0.8c-1.5,0-2.7-0.2-3.8-0.7c-1.1-0.4-2-1.1-2.7-2.1c-0.7-0.9-1.3-2.1-1.6-3.5c-0.4-1.4-0.5-3.1-0.5-5.1
				c0-1.8,0.2-3.4,0.6-4.8s1-2.6,1.7-3.6c0.8-1,1.7-1.8,2.8-2.3c1.1-0.5,2.4-0.8,3.9-0.8c1.4,0,2.7,0.2,3.8,0.7s2,1.1,2.7,2.1
				c0.7,0.9,1.3,2.1,1.7,3.5C108.5,296.9,108.7,298.5,108.7,300.4z M104.7,300.7c0-1.2-0.1-2.2-0.2-3.2c-0.2-1-0.4-1.8-0.8-2.4
				c-0.4-0.7-0.9-1.2-1.5-1.6c-0.6-0.4-1.4-0.6-2.3-0.6c-0.9,0-1.7,0.2-2.4,0.6c-0.6,0.4-1.1,1-1.5,1.7c-0.4,0.7-0.7,1.5-0.8,2.4
				c-0.2,0.9-0.2,1.9-0.2,2.9c0,1.2,0.1,2.3,0.2,3.3s0.4,1.8,0.8,2.5c0.4,0.7,0.9,1.2,1.5,1.6c0.6,0.4,1.4,0.5,2.3,0.5
				c0.9,0,1.7-0.2,2.4-0.6s1.1-1,1.5-1.7c0.4-0.7,0.7-1.5,0.8-2.5C104.6,302.7,104.7,301.7,104.7,300.7z"/>
			<path id="XMLID_9_" class="st12" d="M127.7,296.3c0,1.2-0.2,2.3-0.5,3.3c-0.3,1-0.8,1.8-1.4,2.4c-0.6,0.7-1.4,1.2-2.3,1.5
				c-0.9,0.3-2,0.5-3.2,0.5h-1.6v7.1c0,0.1,0,0.2-0.1,0.3c-0.1,0.1-0.2,0.2-0.3,0.2c-0.1,0.1-0.3,0.1-0.6,0.1
				c-0.2,0-0.6,0.1-0.9,0.1c-0.4,0-0.7,0-0.9-0.1c-0.2,0-0.4-0.1-0.6-0.1c-0.1-0.1-0.2-0.1-0.3-0.2c-0.1-0.1-0.1-0.2-0.1-0.3v-19.9
				c0-0.5,0.1-0.9,0.4-1.2c0.2-0.3,0.5-0.4,0.9-0.4h4.4c0.4,0,0.9,0,1.3,0.1c0.4,0,0.9,0.1,1.4,0.3c0.6,0.1,1.1,0.4,1.7,0.7
				c0.6,0.4,1.1,0.8,1.5,1.3c0.4,0.5,0.7,1.2,0.9,1.9C127.6,294.6,127.7,295.4,127.7,296.3z M123.7,296.7c0-0.8-0.1-1.4-0.3-1.9
				c-0.2-0.5-0.5-0.9-0.9-1.1c-0.3-0.2-0.7-0.4-1.1-0.5c-0.4-0.1-0.8-0.1-1.2-0.1h-1.6v7.5h1.7c0.6,0,1.1-0.1,1.5-0.3
				c0.4-0.2,0.7-0.5,1-0.8c0.3-0.3,0.5-0.8,0.6-1.2C123.7,297.8,123.7,297.2,123.7,296.7z"/>
			<path id="XMLID_13_" class="st12" d="M146.1,291.5c0,0.3,0,0.6,0,0.8c0,0.2-0.1,0.4-0.1,0.6s-0.1,0.2-0.2,0.3s-0.2,0.1-0.2,0.1
				h-4.7v17.8c0,0.1,0,0.2-0.1,0.3c-0.1,0.1-0.2,0.2-0.3,0.2c-0.1,0.1-0.3,0.1-0.6,0.1c-0.2,0-0.6,0.1-0.9,0.1s-0.7,0-0.9-0.1
				c-0.2,0-0.4-0.1-0.6-0.1c-0.1-0.1-0.2-0.1-0.3-0.2c-0.1-0.1-0.1-0.2-0.1-0.3v-17.8h-4.7c-0.1,0-0.2,0-0.2-0.1
				c-0.1-0.1-0.1-0.2-0.2-0.3c0-0.1-0.1-0.3-0.1-0.6c0-0.2,0-0.5,0-0.8c0-0.3,0-0.6,0-0.9c0-0.2,0.1-0.4,0.1-0.6
				c0-0.1,0.1-0.2,0.2-0.3c0.1-0.1,0.1-0.1,0.2-0.1h13.2c0.1,0,0.2,0,0.2,0.1c0.1,0.1,0.1,0.2,0.2,0.3c0,0.1,0.1,0.3,0.1,0.6
				C146.1,290.8,146.1,291.1,146.1,291.5z"/>
			<path id="XMLID_15_" class="st12" d="M155.1,311.1c0,0.1,0,0.2-0.1,0.3c-0.1,0.1-0.2,0.2-0.3,0.2c-0.1,0.1-0.3,0.1-0.6,0.1
				c-0.2,0-0.6,0.1-0.9,0.1c-0.4,0-0.7,0-0.9-0.1c-0.2,0-0.4-0.1-0.6-0.1c-0.1-0.1-0.2-0.1-0.3-0.2c-0.1-0.1-0.1-0.2-0.1-0.3v-20.9
				c0-0.1,0-0.2,0.1-0.3c0.1-0.1,0.2-0.2,0.3-0.2c0.1-0.1,0.3-0.1,0.6-0.1c0.2,0,0.5-0.1,0.9-0.1c0.4,0,0.7,0,0.9,0.1
				c0.2,0,0.4,0.1,0.6,0.1c0.1,0.1,0.2,0.1,0.3,0.2c0.1,0.1,0.1,0.2,0.1,0.3V311.1z"/>
			<path id="XMLID_17_" class="st12" d="M184.1,311.1c0,0.1,0,0.2-0.1,0.3c-0.1,0.1-0.2,0.2-0.3,0.2c-0.1,0.1-0.3,0.1-0.6,0.1
				c-0.2,0-0.5,0.1-0.9,0.1c-0.3,0-0.6,0-0.9-0.1c-0.2,0-0.4-0.1-0.6-0.1c-0.1-0.1-0.2-0.1-0.3-0.2c-0.1-0.1-0.1-0.2-0.1-0.3v-18h0
				l-5.4,18c0,0.1-0.1,0.3-0.2,0.4c-0.1,0.1-0.2,0.2-0.4,0.2c-0.2,0.1-0.3,0.1-0.6,0.1c-0.2,0-0.5,0-0.8,0s-0.6,0-0.8,0
				s-0.4-0.1-0.6-0.1c-0.1-0.1-0.3-0.1-0.4-0.2c-0.1-0.1-0.1-0.2-0.2-0.3l-5.3-18h0v18c0,0.1,0,0.2-0.1,0.3
				c-0.1,0.1-0.2,0.2-0.3,0.2c-0.1,0.1-0.3,0.1-0.6,0.1c-0.2,0-0.5,0.1-0.9,0.1c-0.3,0-0.6,0-0.9-0.1c-0.2,0-0.4-0.1-0.6-0.1
				c-0.1-0.1-0.2-0.1-0.3-0.2c-0.1-0.1-0.1-0.2-0.1-0.3v-19.7c0-0.6,0.1-1,0.4-1.3c0.3-0.3,0.6-0.5,1-0.5h2.5c0.4,0,0.8,0,1.1,0.1
				c0.3,0.1,0.6,0.2,0.8,0.4s0.4,0.5,0.6,0.8c0.2,0.3,0.3,0.7,0.4,1.2l4.1,13.2h0.1l4.2-13.1c0.1-0.5,0.3-0.9,0.4-1.2
				c0.2-0.3,0.3-0.6,0.5-0.8c0.2-0.2,0.4-0.3,0.7-0.4c0.3-0.1,0.6-0.1,0.9-0.1h2.6c0.3,0,0.5,0,0.7,0.1c0.2,0.1,0.3,0.2,0.5,0.3
				c0.1,0.2,0.2,0.3,0.3,0.6c0.1,0.2,0.1,0.5,0.1,0.8V311.1z"/>
			<path id="XMLID_23_" class="st12" d="M206.6,310.1c0.1,0.4,0.2,0.7,0.2,1c0,0.2,0,0.4-0.1,0.5c-0.1,0.1-0.3,0.2-0.6,0.2
				c-0.3,0-0.6,0-1.1,0c-0.5,0-0.9,0-1.2,0c-0.3,0-0.5-0.1-0.6-0.1c-0.1-0.1-0.2-0.1-0.3-0.2c-0.1-0.1-0.1-0.2-0.1-0.4l-1.3-4.4
				h-7.1l-1.2,4.3c0,0.2-0.1,0.3-0.2,0.4c-0.1,0.1-0.2,0.2-0.3,0.3c-0.1,0.1-0.3,0.1-0.6,0.1c-0.3,0-0.6,0-1,0c-0.4,0-0.8,0-1-0.1
				c-0.3,0-0.4-0.1-0.5-0.2c-0.1-0.1-0.1-0.3-0.1-0.6c0-0.2,0.1-0.6,0.2-1l5.8-19.6c0.1-0.2,0.1-0.4,0.2-0.5
				c0.1-0.1,0.2-0.2,0.4-0.3s0.4-0.1,0.7-0.1c0.3,0,0.7,0,1.2,0c0.6,0,1,0,1.4,0c0.3,0,0.6,0.1,0.8,0.1c0.2,0.1,0.3,0.2,0.4,0.3
				c0.1,0.1,0.2,0.3,0.2,0.5L206.6,310.1z M198,293.8L198,293.8l-2.7,9.4h5.3L198,293.8z"/>
			<path id="XMLID_35_" class="st12" d="M222.5,309.9c0,0.3,0,0.6,0,0.9s-0.1,0.4-0.1,0.6c0,0.2-0.1,0.3-0.2,0.3
				c-0.1,0.1-0.2,0.1-0.3,0.1h-8.6c-0.3,0-0.6-0.1-0.8-0.3c-0.2-0.2-0.3-0.6-0.3-1.1v-20.1c0-0.1,0-0.2,0.1-0.3
				c0.1-0.1,0.2-0.2,0.3-0.2c0.1-0.1,0.3-0.1,0.6-0.1c0.2,0,0.6-0.1,0.9-0.1c0.4,0,0.7,0,0.9,0.1c0.2,0,0.4,0.1,0.6,0.1
				c0.1,0.1,0.2,0.1,0.3,0.2c0.1,0.1,0.1,0.2,0.1,0.3V308h5.9c0.1,0,0.2,0,0.3,0.1c0.1,0.1,0.1,0.2,0.2,0.3c0,0.1,0.1,0.3,0.1,0.6
				C222.5,309.2,222.5,309.5,222.5,309.9z"/>
			<path id="XMLID_37_" class="st12" d="M248.6,305.1c0,1.2-0.2,2.2-0.6,3.1c-0.4,0.9-0.9,1.6-1.5,2.2c-0.6,0.6-1.4,1-2.2,1.3
				c-0.8,0.3-1.7,0.4-2.7,0.4c-0.6,0-1.3-0.1-1.8-0.2c-0.6-0.1-1-0.3-1.5-0.5c-0.4-0.2-0.8-0.4-1.1-0.6c-0.3-0.2-0.5-0.4-0.6-0.5
				c-0.1-0.1-0.2-0.4-0.3-0.6c-0.1-0.3-0.1-0.7-0.1-1.2c0-0.4,0-0.6,0-0.9c0-0.2,0.1-0.4,0.1-0.6c0-0.1,0.1-0.3,0.2-0.3
				s0.2-0.1,0.3-0.1c0.1,0,0.3,0.1,0.6,0.3c0.2,0.2,0.6,0.4,1,0.6c0.4,0.2,0.8,0.4,1.4,0.6c0.5,0.2,1.2,0.3,1.9,0.3
				c0.5,0,0.9-0.1,1.3-0.2c0.4-0.1,0.7-0.3,0.9-0.6c0.3-0.2,0.5-0.5,0.6-0.9c0.1-0.4,0.2-0.7,0.2-1.2c0-0.5-0.1-0.9-0.3-1.3
				c-0.2-0.4-0.5-0.7-0.9-1s-0.8-0.5-1.3-0.8s-1-0.5-1.5-0.8s-1-0.6-1.5-0.9c-0.5-0.3-0.9-0.8-1.3-1.2c-0.4-0.5-0.7-1.1-0.9-1.7
				c-0.2-0.7-0.3-1.5-0.3-2.4c0-1.1,0.2-2,0.5-2.8c0.3-0.8,0.8-1.5,1.4-2c0.6-0.5,1.2-0.9,2-1.2c0.8-0.3,1.6-0.4,2.4-0.4
				c0.4,0,0.9,0,1.3,0.1c0.4,0.1,0.9,0.2,1.2,0.3c0.4,0.1,0.7,0.3,1,0.5s0.5,0.3,0.6,0.4c0.1,0.1,0.2,0.2,0.2,0.3
				c0,0.1,0.1,0.2,0.1,0.3s0,0.3,0.1,0.5c0,0.2,0,0.4,0,0.7c0,0.3,0,0.6,0,0.8c0,0.2,0,0.4-0.1,0.6c0,0.1-0.1,0.3-0.1,0.3
				c-0.1,0.1-0.1,0.1-0.3,0.1s-0.3-0.1-0.5-0.2c-0.2-0.2-0.5-0.3-0.9-0.5c-0.3-0.2-0.7-0.4-1.2-0.5c-0.4-0.2-0.9-0.2-1.5-0.2
				c-0.4,0-0.8,0.1-1.1,0.2c-0.3,0.1-0.6,0.3-0.8,0.5c-0.2,0.2-0.4,0.5-0.5,0.8c-0.1,0.3-0.2,0.6-0.2,0.9c0,0.5,0.1,0.9,0.3,1.3
				c0.2,0.4,0.5,0.7,0.9,1c0.4,0.3,0.8,0.5,1.3,0.8c0.5,0.2,1,0.5,1.5,0.8c0.5,0.3,1,0.6,1.5,0.9c0.5,0.3,0.9,0.8,1.3,1.2
				c0.4,0.5,0.7,1.1,0.9,1.7S248.6,304.2,248.6,305.1z"/>
			<path id="XMLID_39_" class="st12" d="M271.4,300.4c0,1.8-0.2,3.5-0.6,4.9c-0.4,1.4-1,2.7-1.7,3.7c-0.8,1-1.7,1.8-2.8,2.3
				c-1.1,0.5-2.4,0.8-3.9,0.8c-1.5,0-2.7-0.2-3.8-0.7c-1.1-0.4-2-1.1-2.7-2.1c-0.7-0.9-1.3-2.1-1.6-3.5c-0.4-1.4-0.5-3.1-0.5-5.1
				c0-1.8,0.2-3.4,0.6-4.8s1-2.6,1.7-3.6c0.8-1,1.7-1.8,2.8-2.3c1.1-0.5,2.4-0.8,3.9-0.8c1.4,0,2.7,0.2,3.8,0.7s2,1.1,2.7,2.1
				c0.7,0.9,1.3,2.1,1.7,3.5S271.4,298.5,271.4,300.4z M267.4,300.7c0-1.2-0.1-2.2-0.2-3.2c-0.2-1-0.4-1.8-0.8-2.4
				c-0.4-0.7-0.9-1.2-1.5-1.6c-0.6-0.4-1.4-0.6-2.3-0.6c-0.9,0-1.7,0.2-2.4,0.6c-0.6,0.4-1.1,1-1.5,1.7c-0.4,0.7-0.7,1.5-0.8,2.4
				c-0.2,0.9-0.2,1.9-0.2,2.9c0,1.2,0.1,2.3,0.2,3.3c0.2,1,0.4,1.8,0.8,2.5s0.9,1.2,1.5,1.6c0.6,0.4,1.4,0.5,2.3,0.5
				s1.7-0.2,2.4-0.6c0.6-0.4,1.1-1,1.5-1.7c0.4-0.7,0.7-1.5,0.8-2.5C267.3,302.7,267.4,301.7,267.4,300.7z"/>
			<path id="XMLID_42_" class="st12" d="M287.9,309.9c0,0.3,0,0.6,0,0.9s-0.1,0.4-0.1,0.6c0,0.2-0.1,0.3-0.2,0.3
				c-0.1,0.1-0.2,0.1-0.3,0.1h-8.6c-0.3,0-0.6-0.1-0.8-0.3c-0.2-0.2-0.3-0.6-0.3-1.1v-20.1c0-0.1,0-0.2,0.1-0.3
				c0.1-0.1,0.2-0.2,0.3-0.2c0.1-0.1,0.3-0.1,0.6-0.1c0.2,0,0.6-0.1,0.9-0.1c0.4,0,0.7,0,0.9,0.1c0.2,0,0.4,0.1,0.6,0.1
				c0.1,0.1,0.2,0.1,0.3,0.2c0.1,0.1,0.1,0.2,0.1,0.3V308h5.9c0.1,0,0.2,0,0.3,0.1c0.1,0.1,0.1,0.2,0.2,0.3c0,0.1,0.1,0.3,0.1,0.6
				C287.9,309.2,287.9,309.5,287.9,309.9z"/>
			<path id="XMLID_44_" class="st12" d="M307.7,303.5c0,1.4-0.2,2.6-0.5,3.6c-0.3,1.1-0.8,2-1.5,2.7c-0.7,0.7-1.5,1.3-2.4,1.7
				c-1,0.4-2.1,0.6-3.3,0.6c-1.2,0-2.2-0.2-3.2-0.5c-0.9-0.3-1.7-0.9-2.4-1.6c-0.6-0.7-1.1-1.6-1.5-2.6c-0.3-1.1-0.5-2.3-0.5-3.7
				v-13.5c0-0.1,0-0.2,0.1-0.3c0.1-0.1,0.2-0.2,0.3-0.2c0.1-0.1,0.3-0.1,0.6-0.1c0.2,0,0.6-0.1,0.9-0.1c0.4,0,0.7,0,0.9,0.1
				c0.2,0,0.4,0.1,0.6,0.1c0.1,0.1,0.2,0.1,0.3,0.2c0.1,0.1,0.1,0.2,0.1,0.3v13.1c0,0.9,0.1,1.6,0.3,2.3c0.2,0.6,0.4,1.2,0.8,1.6
				c0.3,0.4,0.8,0.7,1.2,0.9s1,0.3,1.6,0.3c0.6,0,1.1-0.1,1.6-0.3c0.5-0.2,0.9-0.5,1.2-0.9s0.6-0.9,0.8-1.5c0.2-0.6,0.3-1.3,0.3-2.1
				v-13.3c0-0.1,0-0.2,0.1-0.3c0.1-0.1,0.2-0.2,0.3-0.2c0.1-0.1,0.3-0.1,0.6-0.1c0.2,0,0.6-0.1,0.9-0.1c0.4,0,0.7,0,0.9,0.1
				c0.2,0,0.4,0.1,0.6,0.1c0.1,0.1,0.2,0.1,0.3,0.2c0.1,0.1,0.1,0.2,0.1,0.3V303.5z"/>
			<path id="XMLID_46_" class="st12" d="M327.3,291.5c0,0.3,0,0.6,0,0.8c0,0.2-0.1,0.4-0.1,0.6s-0.1,0.2-0.2,0.3s-0.2,0.1-0.2,0.1
				H322v17.8c0,0.1,0,0.2-0.1,0.3c-0.1,0.1-0.2,0.2-0.3,0.2c-0.1,0.1-0.3,0.1-0.6,0.1c-0.2,0-0.6,0.1-0.9,0.1c-0.4,0-0.7,0-0.9-0.1
				c-0.2,0-0.4-0.1-0.6-0.1c-0.1-0.1-0.3-0.1-0.3-0.2c-0.1-0.1-0.1-0.2-0.1-0.3v-17.8h-4.7c-0.1,0-0.2,0-0.2-0.1
				c-0.1-0.1-0.1-0.2-0.2-0.3c0-0.1-0.1-0.3-0.1-0.6c0-0.2,0-0.5,0-0.8c0-0.3,0-0.6,0-0.9c0-0.2,0.1-0.4,0.1-0.6
				c0-0.1,0.1-0.2,0.2-0.3c0.1-0.1,0.1-0.1,0.2-0.1h13.2c0.1,0,0.2,0,0.2,0.1c0.1,0.1,0.1,0.2,0.2,0.3c0,0.1,0.1,0.3,0.1,0.6
				C327.3,290.8,327.3,291.1,327.3,291.5z"/>
			<path id="XMLID_48_" class="st12" d="M336.3,311.1c0,0.1,0,0.2-0.1,0.3c-0.1,0.1-0.2,0.2-0.3,0.2c-0.1,0.1-0.3,0.1-0.6,0.1
				c-0.2,0-0.6,0.1-0.9,0.1c-0.4,0-0.7,0-0.9-0.1c-0.2,0-0.4-0.1-0.6-0.1c-0.1-0.1-0.3-0.1-0.3-0.2c-0.1-0.1-0.1-0.2-0.1-0.3v-20.9
				c0-0.1,0-0.2,0.1-0.3c0.1-0.1,0.2-0.2,0.3-0.2c0.2-0.1,0.3-0.1,0.6-0.1c0.2,0,0.5-0.1,0.9-0.1c0.4,0,0.7,0,0.9,0.1
				c0.2,0,0.4,0.1,0.6,0.1c0.1,0.1,0.2,0.1,0.3,0.2c0.1,0.1,0.1,0.2,0.1,0.3V311.1z"/>
			<path id="XMLID_50_" class="st12" d="M360.3,300.4c0,1.8-0.2,3.5-0.6,4.9c-0.4,1.4-1,2.7-1.7,3.7c-0.8,1-1.7,1.8-2.8,2.3
				c-1.1,0.5-2.4,0.8-3.9,0.8c-1.5,0-2.7-0.2-3.8-0.7c-1.1-0.4-2-1.1-2.7-2.1c-0.7-0.9-1.3-2.1-1.6-3.5c-0.4-1.4-0.5-3.1-0.5-5.1
				c0-1.8,0.2-3.4,0.6-4.8s1-2.6,1.7-3.6c0.8-1,1.7-1.8,2.8-2.3c1.1-0.5,2.4-0.8,3.9-0.8c1.4,0,2.7,0.2,3.8,0.7s2,1.1,2.7,2.1
				c0.7,0.9,1.3,2.1,1.7,3.5S360.3,298.5,360.3,300.4z M356.3,300.7c0-1.2-0.1-2.2-0.2-3.2c-0.2-1-0.4-1.8-0.8-2.4
				c-0.4-0.7-0.9-1.2-1.5-1.6c-0.6-0.4-1.4-0.6-2.3-0.6c-0.9,0-1.7,0.2-2.4,0.6c-0.6,0.4-1.1,1-1.5,1.7c-0.4,0.7-0.7,1.5-0.8,2.4
				c-0.2,0.9-0.2,1.9-0.2,2.9c0,1.2,0.1,2.3,0.2,3.3c0.2,1,0.4,1.8,0.8,2.5s0.9,1.2,1.5,1.6c0.6,0.4,1.4,0.5,2.3,0.5
				s1.7-0.2,2.4-0.6c0.6-0.4,1.1-1,1.5-1.7c0.4-0.7,0.7-1.5,0.8-2.5C356.2,302.7,356.3,301.7,356.3,300.7z"/>
			<path id="XMLID_53_" class="st12" d="M382,310.2c0,0.3,0,0.5-0.1,0.7s-0.2,0.4-0.3,0.5s-0.3,0.2-0.5,0.3
				c-0.2,0.1-0.4,0.1-0.5,0.1h-1.6c-0.3,0-0.6,0-0.9-0.1c-0.2-0.1-0.5-0.2-0.7-0.4c-0.2-0.2-0.4-0.5-0.6-0.9
				c-0.2-0.4-0.4-0.8-0.7-1.4l-4.7-10.3c-0.3-0.6-0.5-1.3-0.8-2s-0.5-1.4-0.8-2.1h0c0,0.8,0.1,1.6,0.1,2.5s0,1.7,0,2.5v11.6
				c0,0.1,0,0.2-0.1,0.3c-0.1,0.1-0.1,0.2-0.3,0.2s-0.3,0.1-0.5,0.1c-0.2,0-0.5,0.1-0.9,0.1c-0.3,0-0.6,0-0.8-0.1
				c-0.2,0-0.4-0.1-0.5-0.1c-0.1-0.1-0.2-0.1-0.3-0.2c0-0.1-0.1-0.2-0.1-0.3v-19.9c0-0.5,0.1-0.9,0.4-1.2c0.3-0.3,0.6-0.4,1-0.4h2
				c0.4,0,0.7,0,0.9,0.1s0.5,0.2,0.7,0.4c0.2,0.2,0.4,0.4,0.6,0.7c0.2,0.3,0.4,0.7,0.5,1.1l3.7,8.1c0.2,0.5,0.4,1,0.6,1.4
				s0.4,0.9,0.6,1.4c0.2,0.5,0.4,0.9,0.6,1.4c0.2,0.5,0.4,0.9,0.5,1.4h0c0-0.8-0.1-1.6-0.1-2.5c0-0.9,0-1.7,0-2.5v-10.4
				c0-0.1,0-0.2,0.1-0.3c0.1-0.1,0.2-0.2,0.3-0.2s0.3-0.1,0.5-0.1s0.5,0,0.9,0c0.3,0,0.6,0,0.8,0s0.4,0.1,0.5,0.1s0.2,0.1,0.3,0.2
				c0,0.1,0.1,0.2,0.1,0.3V310.2z"/>
			<path id="XMLID_55_" class="st12" d="M400.2,305.1c0,1.2-0.2,2.2-0.6,3.1c-0.4,0.9-0.9,1.6-1.5,2.2c-0.6,0.6-1.4,1-2.2,1.3
				c-0.8,0.3-1.7,0.4-2.7,0.4c-0.6,0-1.3-0.1-1.8-0.2c-0.6-0.1-1-0.3-1.5-0.5c-0.4-0.2-0.8-0.4-1.1-0.6c-0.3-0.2-0.5-0.4-0.6-0.5
				c-0.1-0.1-0.2-0.4-0.3-0.6c-0.1-0.3-0.1-0.7-0.1-1.2c0-0.4,0-0.6,0-0.9c0-0.2,0.1-0.4,0.1-0.6c0-0.1,0.1-0.3,0.2-0.3
				s0.2-0.1,0.3-0.1c0.1,0,0.3,0.1,0.6,0.3c0.2,0.2,0.6,0.4,1,0.6c0.4,0.2,0.8,0.4,1.4,0.6c0.5,0.2,1.2,0.3,1.9,0.3
				c0.5,0,0.9-0.1,1.3-0.2c0.4-0.1,0.7-0.3,0.9-0.6c0.3-0.2,0.5-0.5,0.6-0.9c0.1-0.4,0.2-0.7,0.2-1.2c0-0.5-0.1-0.9-0.3-1.3
				c-0.2-0.4-0.5-0.7-0.9-1s-0.8-0.5-1.3-0.8s-1-0.5-1.5-0.8s-1-0.6-1.5-0.9c-0.5-0.3-0.9-0.8-1.3-1.2c-0.4-0.5-0.7-1.1-0.9-1.7
				c-0.2-0.7-0.3-1.5-0.3-2.4c0-1.1,0.2-2,0.5-2.8c0.3-0.8,0.8-1.5,1.4-2c0.6-0.5,1.2-0.9,2-1.2c0.8-0.3,1.6-0.4,2.4-0.4
				c0.4,0,0.9,0,1.3,0.1c0.4,0.1,0.9,0.2,1.2,0.3c0.4,0.1,0.7,0.3,1,0.5s0.5,0.3,0.6,0.4c0.1,0.1,0.2,0.2,0.2,0.3
				c0,0.1,0.1,0.2,0.1,0.3s0,0.3,0.1,0.5c0,0.2,0,0.4,0,0.7c0,0.3,0,0.6,0,0.8c0,0.2,0,0.4-0.1,0.6c0,0.1-0.1,0.3-0.1,0.3
				c-0.1,0.1-0.1,0.1-0.3,0.1s-0.3-0.1-0.5-0.2c-0.2-0.2-0.5-0.3-0.9-0.5c-0.3-0.2-0.7-0.4-1.2-0.5c-0.4-0.2-0.9-0.2-1.5-0.2
				c-0.4,0-0.8,0.1-1.1,0.2c-0.3,0.1-0.6,0.3-0.8,0.5c-0.2,0.2-0.4,0.5-0.5,0.8c-0.1,0.3-0.2,0.6-0.2,0.9c0,0.5,0.1,0.9,0.3,1.3
				c0.2,0.4,0.5,0.7,0.9,1c0.4,0.3,0.8,0.5,1.3,0.8c0.5,0.2,1,0.5,1.5,0.8c0.5,0.3,1,0.6,1.5,0.9c0.5,0.3,0.9,0.8,1.3,1.2
				c0.4,0.5,0.7,1.1,0.9,1.7S400.2,304.2,400.2,305.1z"/>
		</g>
	</g>
</g>
</svg>
